<?xml version="1.0" encoding="UTF-8" standalone="no"?>
<svg
   width="216.617mm"
   height="206.386mm"
   viewBox="0 0 2456 2340"
   version="1.1"
   id="svg3"
   sodipodi:docname="swag.svg"
   inkscape:version="1.2.2 (b0a8486, 2022-12-01)"
   xmlns:inkscape="http://www.inkscape.org/namespaces/inkscape"
   xmlns:sodipodi="http://sodipodi.sourceforge.net/DTD/sodipodi-0.dtd"
   xmlns:xlink="http://www.w3.org/1999/xlink"
   xmlns="http://www.w3.org/2000/svg"
   xmlns:svg="http://www.w3.org/2000/svg">
  <defs
     id="defs7">
    <linearGradient
       inkscape:collect="always"
       id="linearGradient11468">
      <stop
         style="stop-color:#262640;stop-opacity:1;"
         offset="0.3929539"
         id="stop11464" />
      <stop
         style="stop-color:#282640;stop-opacity:0.3287037;"
         offset="1"
         id="stop11466" />
    </linearGradient>
    <linearGradient
       id="linearGradient11446"
       inkscape:swatch="solid">
      <stop
         style="stop-color:#262640;stop-opacity:1;"
         offset="0"
         id="stop11444" />
    </linearGradient>
    <linearGradient
       inkscape:collect="always"
       id="linearGradient8514">
      <stop
         style="stop-color:#da5766;stop-opacity:0.60000002;"
         offset="0"
         id="stop8510" />
      <stop
         style="stop-color:#da5766;stop-opacity:0;"
         offset="0.31029812"
         id="stop11418" />
      <stop
         style="stop-color:#da5766;stop-opacity:0.60000002;"
         offset="0.57926828"
         id="stop11420" />
      <stop
         style="stop-color:#da5766;stop-opacity:0;"
         offset="1"
         id="stop8512" />
    </linearGradient>
    <linearGradient
       inkscape:collect="always"
       xlink:href="#linearGradient8514"
       id="linearGradient8516"
       x1="1021.6083"
       y1="427.65466"
       x2="1006.2612"
       y2="1913.6538"
       gradientUnits="userSpaceOnUse" />
    <radialGradient
       inkscape:collect="always"
       xlink:href="#linearGradient11468"
       id="radialGradient11470"
       cx="1355.9841"
       cy="1165.5602"
       fx="1355.9841"
       fy="1165.5602"
       r="769.08215"
       gradientTransform="matrix(1,0,0,0.97057445,0,34.297248)"
       gradientUnits="userSpaceOnUse" />
  </defs>
  <sodipodi:namedview
     id="namedview5"
     pagecolor="#272727"
     bordercolor="#000000"
     borderopacity="0.25"
     inkscape:showpageshadow="2"
     inkscape:pageopacity="0"
     inkscape:pagecheckerboard="0"
     inkscape:deskcolor="#d1d1d1"
     inkscape:document-units="mm"
     showgrid="false"
     inkscape:zoom="1.3234331"
     inkscape:cx="400.09578"
     inkscape:cy="452.2329"
     inkscape:window-width="1280"
     inkscape:window-height="747"
     inkscape:window-x="306"
     inkscape:window-y="1105"
     inkscape:window-maximized="1"
     inkscape:current-layer="svg3" />
  <path
     id="path_right"
     fill="none"
     stroke="#000000"
     stroke-width="1"
     d="m 766.96504,790.01408 c 0,0 4.42,25 4.42,25 4.22,18.84 14.07,39.92 24.66,56 8.35,12.69 18.55,24.14 29.92,34.15 21.61,19.03 46.01,32.38 74,39.38 11.54,2.88 28.15,5.33 40,5.47 0,0 5,0 5,0 0,0 12,-1.04 12,-1.04 0,0 9,0 9,0 43.88006,-4.31 86.67006,-18.29 123.00006,-43.68 51.33,-35.87 85.1,-83.97 112.75,-139.28 0,0 20.11,-47 20.11,-47 8.95,-20.12 18.99,-40.01 30.15,-59 0,0 33.57,-51 33.57,-51 0,0 12.44,-18 12.44,-18 13.22,-17.21 36.91,-42.3 52.98,-56.83 66.44,-60.1 146.29,-96.88 235,-108.45 0,0 31,-2.81 31,-2.81 0,0 10,-0.91 10,-0.91 34.96,-0.41 64.69,0.75 99,8.88 69.13,16.39 133.08,53.32 180.83,106.12 25.19,27.85 42.64,55.38 58.91,89 17.59,36.34 28.54,80.8 31.35,121 0,0 0.91,12 0.91,12 0,0 0,18 0,18 -0.07,45.25 -39.75,84.93 -85,85 0,0 -8,0 -8,0 -32.88,-0.39 -64.39,-23.97 -76.55,-54 -5.66,-13.97 -6.28,-22.31 -6.45,-37 0,0 -0.91,-10 -0.91,-10 -1.28,-17.52 -4.57,-32.54 -10.77,-49 -6.26,-16.61 -15.79,-33.21 -26.93,-47 -11.92,-14.74 -24.68,-26.63 -40.39,-37.26 -25.28,-17.09 -54.69,-26.71 -85,-28.83 0,0 -10,-0.91 -10,-0.91 0,0 -4,0 -4,0 0,0 -12,1.04 -12,1.04 0,0 -10,0 -10,0 -40.5,3.99 -76.08,15.07 -111,36.16 -51.2,30.93 -90.59,81.17 -117.74,133.8 0,0 -28.57,65 -28.57,65 -12.12,26.47 -24.71,50.26 -40.11,75 -62.06,99.63982 -154.56,173.14982 -268.58,203.11982 -24.86,6.53 -50.45,10.28 -76.00006,12.84 0,0 -9,0 -9,0 0,0 -12,1.04 -12,1.04 0,0 -32,0 -32,0 0,0 -10,-0.91 -10,-0.91 -26.25,-1.81 -51.81,-6.32 -77,-14.07 -105.49,-32.45 -188.4,-109.5799 -227.42,-213.01982 -12.02,-31.86 -16.85,-57.49 -20.86,-91 0,0 -1.72,-22 -1.72,-22 -0.05,-4.62 -0.65,-11.84 1,-16 2.41,18.27 2.52,31.29 12.45,48 25.99,43.71 82.86,59.68 125.55,29.79 12.78,-8.95 24.12,-21.55 30.69,-35.79 0,0 7.31,-21 7.31,-21 z m 422.00006,499.99982 c 0,0 689,0 689,0 16.2,0.03 40.53,5.51 56,10.67 55.06,18.33 98.98,55.31 131,103.33 60.58,90.86 72.63,209.1 38.33,312 -13.13,39.41 -34.58,79.08 -62.5,110 -36.74,40.68 -82.44,69.75 -136.83,79.58 -22.38,4.04 -43.44,3.42 -66,3.42 0,0 -81,0 -81,0 0,0 -363,0 -363,0 0,0 -149,0 -149,0 0,0 -43,0 -43,0 -5.28,0 -16.56,0.76 -21,-1 25.59,0 53.78,-6.59 78,-14.67 90.82,-30.28 162.82,-107.87 187.12,-200.33 11.18,-42.54 10.38,-77.64 9.88,-121 0,0 -0.91,-10 -0.91,-10 -2.69,-39.13 -12.28,-77.97 -30.35,-113 -34.9,-67.68 -91.39,-116.87 -162.74,-142.95 -12.79,-4.67 -32.52,-9.7 -46,-11.97 0,0 -27,-4.08 -27,-4.08 z"
     style="display:inline;fill:url(#radialGradient11470);fill-opacity:1;stroke:#fffff4;stroke-width:5.66899;stroke-dasharray:none;stroke-opacity:1"
     inkscape:label="path_right" />
  <path
     id="path_left"
     fill="none"
     stroke="#000000"
     stroke-width="1"
     d="m 1198.0185,774.08151 c -3.5,-4.4 -5.64,-10.06 -8.42,-15 0,0 -20.6,-34 -20.6,-34 -26.18,-37.98 -58.4,-71.5 -98.98,-94.14 -32.76,-18.28 -66.76,-28.14 -104.00004,-31.82 0,0 -10,0 -10,0 0,0 -11,-1.04 -11,-1.04 0,0 -4,0 -4,0 0,0 -10,0.91 -10,0.91 -42.74,2.94 -83.95,21.08 -113.96,52.09 -14.2,14.67 -24.23,29.85 -33.29,48 -8.41,16.86 -16.53,44.15 -16.75,63 0,0 0,20 0,20 -0.02,14.48 -5.47,29.06 -13.52,41 -30.79,45.71 -96.08,52.56 -135.47,13.96 -18.72,-18.35 -23.4,-36.07 -26.18,-60.96 -0.75,-6.73 -2.02,-5.96 -1.8,-14.96 0.37,-14.92 2.45,-30.33 4.89,-45.04 21.22,-128.15 112.43,-235.62 236.08,-276.33 73.93,-24.34 158.49,-22.78 233.00004,-1.38 69.34,19.92 133.73,56.68 185,107.71 0,0 33.08,36 33.08,36 2.47,2.95 10.42,11.69 10.92,15 0.57,3.73 -5.16,10.02 -7.37,13 0,0 -22.58,33 -22.58,33 -15.59,24.57 -29.36,50.42 -41.19,77 0,0 -23.86,54 -23.86,54 z M 794.01846,1290.1915 c 0,0 64,0 64,0 0,0 125,0 125,0 0,0 198.00004,0 198.00004,0 13.03,-0.09 32.04,3.1 45,5.69 55.6,11.12 113.77,43.13 151.83,85.2 40.07,44.29 66.16,95.7 74.9,155 4.41,29.95 3.62,60.76 3.27,91 0,0 -0.91,10 -0.91,10 -2.46,35.9 -10.32,70.16 -25.4,103 -33.14,72.17 -95.29,128.53 -170.69,153.67 -24.31,8.1 -48.48,12.66 -74,14.42 0,0 -12,0.91 -12,0.91 0,0 -258.00004,0 -258.00004,0 0,0 -105,0 -105,0 0,0 -24,-1.84 -24,-1.84 -61.58,-6.58 -114.03,-30.36 -161,-70.59 0,0 -14,-13.57 -14,-13.57 -43.58,-43.58 -71.14,-99.2 -80.58,-160 -4.54,-29.24 -3.76,-62.25 -3.42,-92 0,0 1.84,-22 1.84,-22 6.99,-65.39 33.4,-121.86 78.25,-170 31.37,-33.68 78.74,-62.98 122.91,-76.28 15.31,-4.61 31.14,-8.3 47,-10.44 0,0 17,-2.17 17,-2.17 z"
     style="opacity:1;fill:url(#linearGradient8516);fill-opacity:1;stroke:#ffffff;stroke-width:5.66899;stroke-dasharray:none;stroke-opacity:1" />
</svg>
